<?xml version="1.0" encoding="UTF-8" standalone="no"?>
<!-- Created with Inkscape (http://www.inkscape.org/) -->

<svg
   xmlns:dc="http://purl.org/dc/elements/1.1/"
   xmlns:cc="http://creativecommons.org/ns#"
   xmlns:rdf="http://www.w3.org/1999/02/22-rdf-syntax-ns#"
   xmlns:svg="http://www.w3.org/2000/svg"
   xmlns="http://www.w3.org/2000/svg"
   xmlns:sodipodi="http://sodipodi.sourceforge.net/DTD/sodipodi-0.dtd"
   xmlns:inkscape="http://www.inkscape.org/namespaces/inkscape"
   width="24"
   height="24"
   viewBox="0 0 24 24"
   id="svg4259"
   version="1.1"
   inkscape:version="0.91 r13725"
   sodipodi:docname="opnvault4-merged.svg">
  <defs
     id="defs4261" />
  <sodipodi:namedview
     id="base"
     pagecolor="#ffffff"
     bordercolor="#666666"
     borderopacity="1.0"
     inkscape:pageopacity="0.0"
     inkscape:pageshadow="2"
     inkscape:zoom="15.839192"
     inkscape:cx="6.1592985"
     inkscape:cy="12.811761"
     inkscape:document-units="px"
     inkscape:current-layer="svg4259"
     showgrid="true"
     units="px"
     width="24px"
     inkscape:window-width="1318"
     inkscape:window-height="1004"
     inkscape:window-x="729"
     inkscape:window-y="252"
     inkscape:window-maximized="0">
    <inkscape:grid
       type="xygrid"
       id="grid4807"
       empspacing="4" />
  </sodipodi:namedview>
  <metadata
     id="metadata4264">
    <rdf:RDF>
      <cc:Work
         rdf:about="">
        <dc:format>image/svg+xml</dc:format>
        <dc:type
           rdf:resource="http://purl.org/dc/dcmitype/StillImage" />
        <dc:title></dc:title>
      </cc:Work>
    </rdf:RDF>
  </metadata>
  <g
     inkscape:label="Layer 1"
     inkscape:groupmode="layer"
     id="layer1" />
  <path
     style="fill:#000000;fill-opacity:1;stroke:none;stroke-width:8;stroke-miterlimit:4;stroke-dasharray:none;stroke-opacity:1"
     d="M 12.509766 1.0117188 A 11 11 0 0 0 4.4726562 3.9785156 L 4.1113281 4.3339844 A 11 11 0 0 0 4.2441406 19.800781 A 11 11 0 0 0 19.710938 19.845703 A 11 11 0 0 0 19.933594 4.3808594 A 11 11 0 0 0 12.509766 1.0117188 z M 12 2 A 1.5 1.5 0 0 1 13.5 3.5 A 1.5 1.5 0 0 1 12 5 A 1.5 1.5 0 0 1 10.5 3.5 A 1.5 1.5 0 0 1 12 2 z M 6.0117188 4.4902344 A 1.5 1.5 0 0 1 7.0507812 4.9296875 A 1.5 1.5 0 0 1 7.0507812 7.0507812 A 1.5 1.5 0 0 1 4.9296875 7.0507812 A 1.5 1.5 0 0 1 4.9296875 4.9296875 A 1.5 1.5 0 0 1 6.0117188 4.4902344 z M 18.03125 4.4902344 A 1.5 1.5 0 0 1 18.033203 4.4902344 A 1.5 1.5 0 0 1 19.070312 4.9296875 A 1.5 1.5 0 0 1 19.070312 7.0507812 A 1.5 1.5 0 0 1 16.949219 7.0507812 A 1.5 1.5 0 0 1 16.949219 4.9296875 A 1.5 1.5 0 0 1 18.03125 4.4902344 z M 12.277344 6.0058594 A 6 6 0 0 1 16.328125 7.84375 A 6 6 0 0 1 16.205078 16.279297 A 6 6 0 0 1 7.7695312 16.255859 A 6 6 0 0 1 7.6972656 7.8183594 L 7.8945312 7.625 A 6 6 0 0 1 12.277344 6.0058594 z M 12.183594 8.0039062 A 4 4 0 0 0 9.2617188 9.0839844 L 9.1308594 9.2128906 A 4 4 0 0 0 8.1328125 11 L 11.423828 11 L 13.068359 8.1484375 A 4 4 0 0 0 12.185547 8.0039062 A 4 4 0 0 1 12.183594 8.0039062 z M 14.800781 9.1464844 L 13.154297 12 L 14.802734 14.855469 A 4 4 0 0 1 14.804688 14.853516 A 4 4 0 0 0 14.884766 9.2285156 A 4 4 0 0 0 14.800781 9.1464844 z M 3.5 10.5 A 1.5 1.5 0 0 1 5 12 A 1.5 1.5 0 0 1 3.5 13.5 A 1.5 1.5 0 0 1 2 12 A 1.5 1.5 0 0 1 3.5 10.5 z M 20.5 10.5 A 1.5 1.5 0 0 1 22 12 A 1.5 1.5 0 0 1 20.5 13.5 A 1.5 1.5 0 0 1 19 12 A 1.5 1.5 0 0 1 20.5 10.5 z M 8.1328125 13 A 4 4 0 0 0 9.1796875 14.835938 A 4 4 0 0 0 13.070312 15.853516 L 11.423828 13 L 8.1328125 13 z M 6.0117188 16.509766 A 1.5 1.5 0 0 1 7.0507812 16.949219 A 1.5 1.5 0 0 1 7.0507812 19.070312 A 1.5 1.5 0 0 1 4.9296875 19.070312 A 1.5 1.5 0 0 1 4.9296875 16.949219 A 1.5 1.5 0 0 1 6.0117188 16.509766 z M 18.03125 16.509766 A 1.5 1.5 0 0 1 18.033203 16.509766 A 1.5 1.5 0 0 1 19.070312 16.949219 A 1.5 1.5 0 0 1 19.070312 19.070312 A 1.5 1.5 0 0 1 16.949219 19.070312 A 1.5 1.5 0 0 1 16.949219 16.949219 A 1.5 1.5 0 0 1 18.03125 16.509766 z M 12 19 A 1.5 1.5 0 0 1 13.5 20.5 A 1.5 1.5 0 0 1 12 22 A 1.5 1.5 0 0 1 10.5 20.5 A 1.5 1.5 0 0 1 12 19 z "
     id="path4815" />
</svg>
