<?xml version="1.0" encoding="UTF-8" standalone="no"?>
<!-- Created with Inkscape (http://www.inkscape.org/) -->

<svg
   xmlns:dc="http://purl.org/dc/elements/1.1/"
   xmlns:cc="http://creativecommons.org/ns#"
   xmlns:rdf="http://www.w3.org/1999/02/22-rdf-syntax-ns#"
   xmlns:svg="http://www.w3.org/2000/svg"
   xmlns="http://www.w3.org/2000/svg"
   xmlns:sodipodi="http://sodipodi.sourceforge.net/DTD/sodipodi-0.dtd"
   xmlns:inkscape="http://www.inkscape.org/namespaces/inkscape"
   width="24"
   height="24"
   viewBox="0 0 24 24"
   id="svg2"
   version="1.1"
   inkscape:version="0.91 r13725"
   sodipodi:docname="opnvault8-merged.svg">
  <defs
     id="defs4" />
  <sodipodi:namedview
     id="base"
     pagecolor="#ffffff"
     bordercolor="#666666"
     borderopacity="1.0"
     inkscape:pageopacity="0.0"
     inkscape:pageshadow="2"
     inkscape:zoom="22.4"
     inkscape:cx="7.4205269"
     inkscape:cy="9.0876462"
     inkscape:document-units="px"
     inkscape:current-layer="svg2"
     showgrid="true"
     units="px"
     width="24px"
     inkscape:window-width="2431"
     inkscape:window-height="1436"
     inkscape:window-x="57"
     inkscape:window-y="187"
     inkscape:window-maximized="0">
    <inkscape:grid
       type="xygrid"
       id="grid3338"
       empspacing="4" />
  </sodipodi:namedview>
  <metadata
     id="metadata7">
    <rdf:RDF>
      <cc:Work
         rdf:about="">
        <dc:format>image/svg+xml</dc:format>
        <dc:type
           rdf:resource="http://purl.org/dc/dcmitype/StillImage" />
        <dc:title></dc:title>
      </cc:Work>
    </rdf:RDF>
  </metadata>
  <g
     inkscape:label="Layer 1"
     inkscape:groupmode="layer"
     id="layer1" />
  <path
     style="fill:#000000;fill-opacity:1;stroke:none"
     d="M 12,3 A 9,2.5 0 0 0 3,5.5 9,2.5 0 0 0 12,8 9,2.5 0 0 0 21,5.5 9,2.5 0 0 0 12,3 Z m -9,4.5 0,4 a 9,2.5 0 0 0 9,2.5 9,2.5 0 0 0 9,-2.5 l 0,-4 A 9,2.5 0 0 1 12,10 9,2.5 0 0 1 3,7.5 Z m 0,6 0,4 a 9,2.5 0 0 0 9,2.5 9,2.5 0 0 0 9,-2.5 l 0,-4 A 9,2.5 0 0 1 12,16 9,2.5 0 0 1 3,13.5 Z"
     id="path4203"
     inkscape:connector-curvature="0" />
</svg>
