<?xml version="1.0" encoding="UTF-8" standalone="no"?>
<!-- Created with Inkscape (http://www.inkscape.org/) -->

<svg
   xmlns:dc="http://purl.org/dc/elements/1.1/"
   xmlns:cc="http://creativecommons.org/ns#"
   xmlns:rdf="http://www.w3.org/1999/02/22-rdf-syntax-ns#"
   xmlns:svg="http://www.w3.org/2000/svg"
   xmlns="http://www.w3.org/2000/svg"
   xmlns:sodipodi="http://sodipodi.sourceforge.net/DTD/sodipodi-0.dtd"
   xmlns:inkscape="http://www.inkscape.org/namespaces/inkscape"
   width="24"
   height="24"
   viewBox="0 0 24 24"
   id="svg4259"
   version="1.1"
   inkscape:version="0.91 r13725"
   sodipodi:docname="opnvault6-merged.svg">
  <defs
     id="defs4261" />
  <sodipodi:namedview
     id="base"
     pagecolor="#ffffff"
     bordercolor="#666666"
     borderopacity="1.0"
     inkscape:pageopacity="0.0"
     inkscape:pageshadow="2"
     inkscape:zoom="15.839192"
     inkscape:cx="12.336604"
     inkscape:cy="6.6743039"
     inkscape:document-units="px"
     inkscape:current-layer="svg4259"
     showgrid="true"
     units="px"
     width="24px"
     inkscape:window-width="1559"
     inkscape:window-height="960"
     inkscape:window-x="681"
     inkscape:window-y="255"
     inkscape:window-maximized="0">
    <inkscape:grid
       type="xygrid"
       id="grid4807"
       empspacing="4" />
  </sodipodi:namedview>
  <metadata
     id="metadata4264">
    <rdf:RDF>
      <cc:Work
         rdf:about="">
        <dc:format>image/svg+xml</dc:format>
        <dc:type
           rdf:resource="http://purl.org/dc/dcmitype/StillImage" />
        <dc:title></dc:title>
      </cc:Work>
    </rdf:RDF>
  </metadata>
  <g
     inkscape:label="Layer 1"
     inkscape:groupmode="layer"
     id="layer1" />
  <path
     style="fill:#000000;fill-opacity:1;stroke:none;stroke-width:8;stroke-miterlimit:4;stroke-dasharray:none;stroke-opacity:1"
     d="M 12.509766 1.0117188 A 11 11 0 0 0 4.4726562 3.9785156 L 4.1113281 4.3339844 A 11 11 0 0 0 4.2441406 19.800781 A 11 11 0 0 0 19.710938 19.845703 A 11 11 0 0 0 19.933594 4.3808594 A 11 11 0 0 0 12.509766 1.0117188 z M 12 2.5 A 1 1 0 0 1 13 3.5 A 1 1 0 0 1 12 4.5 A 1 1 0 0 1 11 3.5 A 1 1 0 0 1 12 2.5 z M 6.0039062 4.9902344 A 1 1 0 0 1 6.6972656 5.2832031 A 1 1 0 0 1 6.6972656 6.6972656 A 1 1 0 0 1 5.2832031 6.6972656 A 1 1 0 0 1 5.2832031 5.2832031 A 1 1 0 0 1 6.0039062 4.9902344 z M 18.025391 4.9902344 A 1 1 0 0 1 18.716797 5.2832031 A 1 1 0 0 1 18.716797 6.6972656 A 1 1 0 0 1 17.302734 6.6972656 A 1 1 0 0 1 17.302734 5.2832031 A 1 1 0 0 1 18.025391 4.9902344 z M 12.277344 6.0058594 A 6 6 0 0 1 16.328125 7.84375 A 6 6 0 0 1 16.205078 16.279297 A 6 6 0 0 1 7.7695312 16.255859 A 6 6 0 0 1 7.6972656 7.8183594 L 7.8945312 7.625 A 6 6 0 0 1 12.277344 6.0058594 z M 11 8.1269531 A 4 4 0 0 0 9.2617188 9.0839844 L 9.1308594 9.2128906 A 4 4 0 0 0 8.6308594 9.8535156 L 11 10.623047 L 11 8.1269531 z M 13 8.1289062 L 13 10.623047 L 15.375 9.8515625 A 4 4 0 0 0 14.884766 9.2285156 A 4 4 0 0 0 13 8.1289062 z M 3.5 11 A 1 1 0 0 1 4.5 12 A 1 1 0 0 1 3.5 13 A 1 1 0 0 1 2.5 12 A 1 1 0 0 1 3.5 11 z M 20.5 11 A 1 1 0 0 1 21.5 12 A 1 1 0 0 1 20.5 13 A 1 1 0 0 1 19.5 12 A 1 1 0 0 1 20.5 11 z M 15.992188 11.753906 L 13.617188 12.525391 L 15.083984 14.542969 A 4 4 0 0 0 15.992188 11.753906 z M 8.0117188 11.755859 A 4 4 0 0 0 8.9140625 14.544922 L 10.382812 12.525391 L 8.0117188 11.755859 z M 12 13.701172 L 10.535156 15.716797 A 4 4 0 0 0 13.46875 15.722656 L 12 13.701172 z M 6.0039062 17.009766 A 1 1 0 0 1 6.6972656 17.302734 A 1 1 0 0 1 6.6972656 18.716797 A 1 1 0 0 1 5.2832031 18.716797 A 1 1 0 0 1 5.2832031 17.302734 A 1 1 0 0 1 6.0039062 17.009766 z M 18.025391 17.009766 A 1 1 0 0 1 18.716797 17.302734 A 1 1 0 0 1 18.716797 18.716797 A 1 1 0 0 1 17.302734 18.716797 A 1 1 0 0 1 17.302734 17.302734 A 1 1 0 0 1 18.025391 17.009766 z M 12 19.5 A 1 1 0 0 1 13 20.5 A 1 1 0 0 1 12 21.5 A 1 1 0 0 1 11 20.5 A 1 1 0 0 1 12 19.5 z "
     id="path4815" />
</svg>
