<?xml version="1.0" encoding="UTF-8" standalone="no"?>
<!-- Created with Inkscape (http://www.inkscape.org/) -->

<svg
   xmlns:dc="http://purl.org/dc/elements/1.1/"
   xmlns:cc="http://creativecommons.org/ns#"
   xmlns:rdf="http://www.w3.org/1999/02/22-rdf-syntax-ns#"
   xmlns:svg="http://www.w3.org/2000/svg"
   xmlns="http://www.w3.org/2000/svg"
   xmlns:sodipodi="http://sodipodi.sourceforge.net/DTD/sodipodi-0.dtd"
   xmlns:inkscape="http://www.inkscape.org/namespaces/inkscape"
   width="24"
   height="24"
   viewBox="0 0 24 24"
   id="svg2"
   version="1.1"
   inkscape:version="0.91 r13725"
   sodipodi:docname="opnvault2-merged.svg">
  <defs
     id="defs4" />
  <sodipodi:namedview
     id="base"
     pagecolor="#ffffff"
     bordercolor="#666666"
     borderopacity="1.0"
     inkscape:pageopacity="0.0"
     inkscape:pageshadow="2"
     inkscape:zoom="22.4"
     inkscape:cx="8.384661"
     inkscape:cy="13.026316"
     inkscape:document-units="px"
     inkscape:current-layer="svg2"
     showgrid="true"
     units="px"
     width="24px"
     inkscape:window-width="1450"
     inkscape:window-height="1113"
     inkscape:window-x="957"
     inkscape:window-y="86"
     inkscape:window-maximized="0">
    <inkscape:grid
       type="xygrid"
       id="grid4136"
       empspacing="4" />
  </sodipodi:namedview>
  <metadata
     id="metadata7">
    <rdf:RDF>
      <cc:Work
         rdf:about="">
        <dc:format>image/svg+xml</dc:format>
        <dc:type
           rdf:resource="http://purl.org/dc/dcmitype/StillImage" />
        <dc:title></dc:title>
      </cc:Work>
    </rdf:RDF>
  </metadata>
  <g
     inkscape:label="Layer 1"
     inkscape:groupmode="layer"
     id="layer1" />
  <path
     style="fill:#000000;fill-opacity:1;stroke:none;stroke-width:8;stroke-miterlimit:4;stroke-dasharray:none;stroke-opacity:1"
     d="M 5 1 C 3.892 1 3 1.892 3 3 L 3 21 C 3 22.108 3.892 23 5 23 L 19 23 C 20.108 23 21 22.108 21 21 L 21 3 C 21 1.892 20.108 1 19 1 L 5 1 z M 7.0097656 3 L 19 3 L 19 21 L 7.0097656 21 L 7.0097656 3 z M 5 5 L 7 5 L 7 7 L 5 7 L 5 5 z M 12 6.5 L 12 8.1289062 A 4 4 0 0 0 10.970703 8.5566406 L 9.8183594 7.4042969 L 8.4042969 8.8183594 L 9.5566406 9.9707031 A 4 4 0 0 0 9.1328125 11 L 7.5 11 L 7.5 13 L 9.1328125 13 A 4 4 0 0 0 9.5566406 14.029297 L 8.4042969 15.181641 L 9.8183594 16.595703 L 10.970703 15.443359 A 4 4 0 0 0 12 15.869141 L 12 17.5 L 14 17.5 L 14 15.869141 A 4 4 0 0 0 15.029297 15.443359 L 16.181641 16.595703 L 17.595703 15.181641 L 16.445312 14.03125 A 4 4 0 0 0 16.869141 13 L 18.5 13 L 18.5 11 L 16.871094 11 A 4 4 0 0 0 16.441406 9.9726562 L 17.595703 8.8183594 L 16.181641 7.4042969 L 15.029297 8.5566406 A 4 4 0 0 0 14 8.1289062 L 14 6.5 L 12 6.5 z M 5 11 L 7 11 L 7 13 L 5 13 L 5 11 z M 12.947266 11.001953 A 1 1 0 0 1 13.720703 11.306641 A 1 1 0 0 1 13.701172 12.712891 A 1 1 0 0 1 12.294922 12.708984 A 1 1 0 0 1 12.283203 11.302734 L 12.316406 11.271484 A 1 1 0 0 1 12.947266 11.001953 z M 5 17 L 7 17 L 7 19 L 5 19 L 5 17 z "
     id="rect4138" />
</svg>
