<?xml version="1.0" encoding="UTF-8" standalone="no"?>
<!-- Created with Inkscape (http://www.inkscape.org/) -->

<svg
   xmlns:dc="http://purl.org/dc/elements/1.1/"
   xmlns:cc="http://creativecommons.org/ns#"
   xmlns:rdf="http://www.w3.org/1999/02/22-rdf-syntax-ns#"
   xmlns:svg="http://www.w3.org/2000/svg"
   xmlns="http://www.w3.org/2000/svg"
   xmlns:sodipodi="http://sodipodi.sourceforge.net/DTD/sodipodi-0.dtd"
   xmlns:inkscape="http://www.inkscape.org/namespaces/inkscape"
   width="24"
   height="24"
   viewBox="0 0 24 24"
   id="svg2"
   version="1.1"
   inkscape:version="0.91 r13725"
   sodipodi:docname="opnvault3-merged.svg">
  <defs
     id="defs4" />
  <sodipodi:namedview
     id="base"
     pagecolor="#ffffff"
     bordercolor="#666666"
     borderopacity="1.0"
     inkscape:pageopacity="0.0"
     inkscape:pageshadow="2"
     inkscape:zoom="15.839192"
     inkscape:cx="5.5751408"
     inkscape:cy="-0.41986996"
     inkscape:document-units="px"
     inkscape:current-layer="svg2"
     showgrid="true"
     units="px"
     width="24px"
     inkscape:window-width="1450"
     inkscape:window-height="1113"
     inkscape:window-x="826"
     inkscape:window-y="156"
     inkscape:window-maximized="0">
    <inkscape:grid
       type="xygrid"
       id="grid4136"
       empspacing="4" />
  </sodipodi:namedview>
  <metadata
     id="metadata7">
    <rdf:RDF>
      <cc:Work
         rdf:about="">
        <dc:format>image/svg+xml</dc:format>
        <dc:type
           rdf:resource="http://purl.org/dc/dcmitype/StillImage" />
        <dc:title></dc:title>
      </cc:Work>
    </rdf:RDF>
  </metadata>
  <g
     inkscape:label="Layer 1"
     inkscape:groupmode="layer"
     id="layer1" />
  <path
     style="fill:#000000;fill-opacity:1;stroke:none;stroke-width:8;stroke-miterlimit:4;stroke-dasharray:none;stroke-opacity:1"
     d="M 5 1 C 3.892 1 3 1.892 3 3 L 3 21 C 3 22.108 3.892 23 5 23 L 19 23 C 20.108 23 21 22.108 21 21 L 21 3 C 21 1.892 20.108 1 19 1 L 5 1 z M 7.0097656 3 L 19 3 L 19 21 L 7.0097656 21 L 7.0097656 3 z M 5 5 L 7 5 L 7 7 L 5 7 L 5 5 z M 13.253906 6.5058594 A 5.5 5.5 0 0 0 9.2363281 7.9902344 L 9.0546875 8.1679688 A 5.5 5.5 0 0 0 9.1230469 15.900391 A 5.5 5.5 0 0 0 16.855469 15.921875 A 5.5 5.5 0 0 0 16.966797 8.1894531 A 5.5 5.5 0 0 0 13.253906 6.5058594 z M 13.162109 8.5039062 A 3.5 3.5 0 0 1 13.810547 8.5976562 L 12.423828 11 L 9.6484375 11 A 3.5 3.5 0 0 1 10.490234 9.5605469 L 10.605469 9.4472656 A 3.5 3.5 0 0 1 13.162109 8.5039062 z M 15.541016 9.5957031 A 3.5 3.5 0 0 1 15.541016 14.404297 L 14.154297 12 L 15.541016 9.5957031 z M 5 11 L 7 11 L 7 13 L 5 13 L 5 11 z M 9.6464844 13 L 12.423828 13 L 13.808594 15.400391 A 3.5 3.5 0 0 1 10.533203 14.482422 A 3.5 3.5 0 0 1 9.6464844 13 z M 5 17 L 7 17 L 7 19 L 5 19 L 5 17 z "
     id="rect4138" />
</svg>
